<mxfile host="app.diagrams.net" modified="2024-06-11T13:18:56.908Z" agent="Mozilla/5.0 (X11; Ubuntu; Linux x86_64; rv:126.0) Gecko/20100101 Firefox/126.0" etag="jnt_6V2ldIXZnr8M3RRA" version="24.4.13" type="github">
  <diagram name="Page-1" id="zr4n7zDSrlWNRirFR9_w">
    <mxGraphModel dx="1035" dy="502" grid="1" gridSize="10" guides="1" tooltips="1" connect="1" arrows="1" fold="1" page="1" pageScale="1" pageWidth="850" pageHeight="1100" math="0" shadow="0">
      <root>
        <mxCell id="0" />
        <mxCell id="1" parent="0" />
        <mxCell id="EVzXzowgza09Fw4FmEg5-7" style="edgeStyle=orthogonalEdgeStyle;rounded=0;orthogonalLoop=1;jettySize=auto;html=1;exitX=0.5;exitY=1;exitDx=0;exitDy=0;exitPerimeter=0;entryX=0.5;entryY=0;entryDx=0;entryDy=0;" edge="1" parent="1" source="EVzXzowgza09Fw4FmEg5-1" target="EVzXzowgza09Fw4FmEg5-2">
          <mxGeometry relative="1" as="geometry" />
        </mxCell>
        <mxCell id="EVzXzowgza09Fw4FmEg5-1" value="MULAI" style="strokeWidth=2;html=1;shape=mxgraph.flowchart.start_2;whiteSpace=wrap;" vertex="1" parent="1">
          <mxGeometry x="400" y="50" width="100" height="60" as="geometry" />
        </mxCell>
        <mxCell id="EVzXzowgza09Fw4FmEg5-8" style="edgeStyle=orthogonalEdgeStyle;rounded=0;orthogonalLoop=1;jettySize=auto;html=1;exitX=0.5;exitY=1;exitDx=0;exitDy=0;entryX=0.5;entryY=0;entryDx=0;entryDy=0;" edge="1" parent="1" source="EVzXzowgza09Fw4FmEg5-2" target="EVzXzowgza09Fw4FmEg5-3">
          <mxGeometry relative="1" as="geometry" />
        </mxCell>
        <mxCell id="EVzXzowgza09Fw4FmEg5-2" value="&lt;b&gt;INISIALISASI&lt;br&gt;&lt;/b&gt;Program menyiapkan resource yang dibutuhkan" style="rounded=1;whiteSpace=wrap;html=1;" vertex="1" parent="1">
          <mxGeometry x="380" y="140" width="140" height="70" as="geometry" />
        </mxCell>
        <mxCell id="EVzXzowgza09Fw4FmEg5-9" style="edgeStyle=orthogonalEdgeStyle;rounded=0;orthogonalLoop=1;jettySize=auto;html=1;exitX=0.5;exitY=1;exitDx=0;exitDy=0;entryX=0.5;entryY=0;entryDx=0;entryDy=0;" edge="1" parent="1" source="EVzXzowgza09Fw4FmEg5-3" target="EVzXzowgza09Fw4FmEg5-4">
          <mxGeometry relative="1" as="geometry" />
        </mxCell>
        <mxCell id="EVzXzowgza09Fw4FmEg5-3" value="&lt;b&gt;RENDER&lt;br&gt;&lt;/b&gt;Program merender tampilan" style="rounded=1;whiteSpace=wrap;html=1;" vertex="1" parent="1">
          <mxGeometry x="390" y="240" width="120" height="60" as="geometry" />
        </mxCell>
        <mxCell id="EVzXzowgza09Fw4FmEg5-10" style="edgeStyle=orthogonalEdgeStyle;rounded=0;orthogonalLoop=1;jettySize=auto;html=1;exitX=0.5;exitY=1;exitDx=0;exitDy=0;entryX=0.5;entryY=0;entryDx=0;entryDy=0;" edge="1" parent="1" source="EVzXzowgza09Fw4FmEg5-4" target="EVzXzowgza09Fw4FmEg5-5">
          <mxGeometry relative="1" as="geometry" />
        </mxCell>
        <mxCell id="EVzXzowgza09Fw4FmEg5-4" value="&lt;b&gt;INPUT&lt;br&gt;&lt;/b&gt;Program menunggu input dari user" style="rounded=1;whiteSpace=wrap;html=1;absoluteArcSize=1;arcSize=14;strokeWidth=2;" vertex="1" parent="1">
          <mxGeometry x="385" y="330" width="130" height="70" as="geometry" />
        </mxCell>
        <mxCell id="EVzXzowgza09Fw4FmEg5-11" style="edgeStyle=orthogonalEdgeStyle;rounded=0;orthogonalLoop=1;jettySize=auto;html=1;exitX=0.5;exitY=1;exitDx=0;exitDy=0;entryX=0.5;entryY=0;entryDx=0;entryDy=0;" edge="1" parent="1" source="EVzXzowgza09Fw4FmEg5-5" target="EVzXzowgza09Fw4FmEg5-6">
          <mxGeometry relative="1" as="geometry" />
        </mxCell>
        <mxCell id="EVzXzowgza09Fw4FmEg5-5" value="&lt;b&gt;UPDATE&lt;br&gt;&lt;/b&gt;Program mengecek logika input yang dimasukkan oleh user" style="rounded=1;whiteSpace=wrap;html=1;absoluteArcSize=1;arcSize=14;strokeWidth=2;" vertex="1" parent="1">
          <mxGeometry x="400" y="440" width="100" height="100" as="geometry" />
        </mxCell>
        <mxCell id="EVzXzowgza09Fw4FmEg5-13" style="edgeStyle=orthogonalEdgeStyle;rounded=0;orthogonalLoop=1;jettySize=auto;html=1;exitX=1;exitY=0.5;exitDx=0;exitDy=0;" edge="1" parent="1" source="EVzXzowgza09Fw4FmEg5-6">
          <mxGeometry relative="1" as="geometry">
            <mxPoint x="520" y="360" as="targetPoint" />
            <Array as="points">
              <mxPoint x="680" y="610" />
              <mxPoint x="680" y="360" />
            </Array>
          </mxGeometry>
        </mxCell>
        <mxCell id="EVzXzowgza09Fw4FmEg5-6" value="&lt;b&gt;RENDER&lt;br&gt;&lt;/b&gt;Program merender tampilan" style="rounded=1;whiteSpace=wrap;html=1;" vertex="1" parent="1">
          <mxGeometry x="390" y="580" width="120" height="60" as="geometry" />
        </mxCell>
      </root>
    </mxGraphModel>
  </diagram>
</mxfile>
